<svg height="464pt" viewBox="-136 0 464 464" width="464pt" xmlns="http://www.w3.org/2000/svg"><path d="m16 160h128c8.835938 0 16 7.164062 16 16v112c0 8.835938-7.164062 16-16 16h-128c-8.835938 0-16-7.164062-16-16v-112c0-8.835938 7.164062-16 16-16zm0 0" fill="#5a6470"/><path d="m136 160h-112l4.800781-48 11.199219-112h80l11.199219 112zm0 0" fill="#5a6470"/><path d="m136 304-4.800781 48-11.199219 112h-80l-11.199219-112-4.800781-48zm0 0" fill="#5a6470"/><g fill="#cfdfe8"><path d="m136 160h-112l4.800781-48h102.398438zm0 0"/><path d="m136 304-4.800781 48h-102.398438l-4.800781-48zm0 0"/><path d="m160 184h32v32h-32zm0 0"/><path d="m160 248h32v32h-32zm0 0"/></g><path d="m107.328125 192c-22.855469 0-27.328125 16-27.328125 16-5.933594-10.726562-17.597656-16.988281-29.816406-16-22.855469 0-33.039063 40 29.816406 80 62.855469-40 50.183594-80 27.328125-80zm0 0" fill="#dd3e46"/></svg>